<svg width="92" height="92" viewBox="0 0 92 92" fill="none" xmlns="http://www.w3.org/2000/svg">
<path d="M78.793 14.375V15.0039H79.4219H82.1172C87.2192 15.0039 91.3711 19.1558 91.3711 24.2578V38.6328C91.3711 43.7349 87.2192 47.8867 82.1172 47.8867H73.6719H73.043V48.5156V76.7266C73.043 80.8378 69.6972 84.1836 65.5859 84.1836H14.2927H14.1023L13.9439 84.2892L3.84147 91.0239L3.84127 91.024C3.49581 91.2545 3.09625 91.3711 2.69513 91.3711C2.36055 91.3711 2.02582 91.2902 1.72043 91.1267L1.72023 91.1266C1.0484 90.767 0.628906 90.0668 0.628906 89.3047V37.1953C0.628906 33.0841 3.97469 29.7383 8.08594 29.7383H39.8906H40.5195V29.1094V17.0703C40.5195 15.9291 41.4447 15.0039 42.5859 15.0039H53.3672C54.5084 15.0039 55.4336 15.9291 55.4336 17.0703V17.0908V17.9246L56.2353 17.6955L58.8614 16.9451C58.8614 16.9451 58.8614 16.9451 58.8614 16.9451C61.8172 16.1007 63.8789 13.3672 63.8789 10.2934V8.08594C63.8789 3.97469 67.2247 0.628906 71.3359 0.628906C75.4472 0.628906 78.793 3.97469 78.793 8.08594V14.375ZM45.2812 19.1367H44.6523V19.7656V43.125V43.7539H45.2812H50.6719H51.3008V43.125V19.7656V19.1367H50.6719H45.2812ZM12.3304 80.398L12.3305 80.3979C12.6699 80.1716 13.0687 80.0508 13.4766 80.0508H65.5859C67.4195 80.0508 68.9102 78.5601 68.9102 76.7266V48.5156V47.8867H68.2812H64.2043C61.3911 47.8867 58.6847 47.0653 56.382 45.5968L55.5324 45.055L55.4189 46.0562C55.3021 47.0863 54.4278 47.8867 53.3672 47.8867H42.5859C41.4447 47.8867 40.5195 46.9615 40.5195 45.8203V34.5V33.8711H39.8906H8.08594C6.25241 33.8711 4.76172 35.3618 4.76172 37.1953V84.2686V85.4437L5.73948 84.7919L12.3304 80.398ZM55.4336 38.7683V38.9589L55.5394 39.1174C57.4594 41.9946 60.7158 43.7539 64.2043 43.7539H82.1172C84.9415 43.7539 87.2383 41.4571 87.2383 38.6328V24.2578C87.2383 21.4335 84.9415 19.1367 82.1172 19.1367H76.7266C75.5854 19.1367 74.6602 18.2115 74.6602 17.0703V8.08594C74.6602 6.25241 73.1695 4.76172 71.3359 4.76172C69.5024 4.76172 68.0117 6.25241 68.0117 8.08594V10.2934C68.0117 15.1998 64.7144 19.5712 59.9967 20.9192L55.8897 22.0925L55.4336 22.2228V22.6972V38.7683Z" fill="#0F172A" stroke="white" stroke-width="1.25781"/>
<path d="M31.4453 50.043H13.4766C12.3354 50.043 11.4102 49.1178 11.4102 47.9766C11.4102 46.8354 12.3354 45.9102 13.4766 45.9102H31.4453C32.5865 45.9102 33.5117 46.8354 33.5117 47.9766C33.5117 49.1178 32.5865 50.043 31.4453 50.043Z" fill="#0F172A" stroke="white" stroke-width="1.25781"/>
<path d="M13.4766 56.6914H60.1953C61.3365 56.6914 62.2617 57.6166 62.2617 58.7578C62.2617 59.899 61.3365 60.8242 60.1953 60.8242H13.4766C12.3354 60.8242 11.4102 59.899 11.4102 58.7578C11.4102 57.6166 12.3354 56.6914 13.4766 56.6914Z" fill="#0F172A" stroke="white" stroke-width="1.25781"/>
<path d="M13.4766 67.4727H60.1953C61.3365 67.4727 62.2617 68.3979 62.2617 69.5391C62.2617 70.6803 61.3365 71.6055 60.1953 71.6055H13.4766C12.3354 71.6055 11.4102 70.6803 11.4102 69.5391C11.4102 68.3979 12.3354 67.4727 13.4766 67.4727Z" fill="#0F172A" stroke="white" stroke-width="1.25781"/>
</svg>
