<svg width="92" height="92" viewBox="0 0 92 92" fill="none" xmlns="http://www.w3.org/2000/svg">
<g clip-path="url(#clip0_43_3426)">
<path d="M84.6684 59.7307L84.6684 59.7307C85.2975 59.0964 86.3215 59.0921 86.9559 59.7214L91.3419 64.0716C91.9762 64.7007 91.9804 65.7248 91.351 66.3591L91.3509 66.3592C91.0347 66.6781 90.619 66.8377 90.2026 66.8377C89.7905 66.8377 89.379 66.6815 89.0636 66.3686L89.0636 66.3685L84.6778 62.0183L84.6778 62.0183C84.0435 61.3892 84.0391 60.365 84.6684 59.7307Z" fill="#0F172A" stroke="white" stroke-width="0.359375"/>
<path d="M80.1972 57.5586L80.1973 57.5586C80.5125 57.8741 80.926 58.0317 81.34 58.0317C81.755 58.0317 82.1698 57.8734 82.486 57.5572C83.1177 56.9255 83.1178 55.9013 82.4862 55.2694C82.4862 55.2694 82.4862 55.2694 82.4862 55.2694M80.1972 57.5586L80.0716 55.1424C80.7738 54.4405 81.9114 54.4405 82.6133 55.1424L82.4862 55.2694M80.1972 57.5586C79.5653 56.9267 79.5641 55.904 80.1956 55.2725L80.1986 55.2695M80.1972 57.5586L80.1986 55.2695M82.4862 55.2694C81.8545 54.6378 80.8307 54.6377 80.1987 55.2694C80.1987 55.2694 80.1986 55.2694 80.1986 55.2695M82.4862 55.2694L80.1986 55.2695" fill="#0F172A" stroke="white" stroke-width="0.359375"/>
<mask id="path-3-inside-1_43_3426" fill="white">
<path d="M67.2918 63.4297L84.7265 45.9951C87.367 43.3545 87.367 39.0578 84.7263 36.4171C83.7952 35.4859 82.658 34.8847 81.4602 34.6103C81.8709 33.7273 82.0883 32.7583 82.0883 31.7554C82.0883 29.9464 81.3838 28.2456 80.1048 26.9666C79.1016 25.9632 77.8386 25.3153 76.4677 25.0819C77.2395 22.7305 76.6939 20.0375 74.8275 18.1713C73.8013 17.1452 72.525 16.5199 71.193 16.2914C71.4162 15.6141 71.5339 14.899 71.5339 14.1651C71.5339 12.356 70.8293 10.6553 69.5503 9.37627C68.2711 8.09725 66.5704 7.39269 64.7614 7.39269C63.6127 7.39269 62.5082 7.67768 61.5269 8.21279L61.3535 8.02645C59.0998 5.60462 55.9099 4.21582 52.602 4.21582H38.4893C37.4969 4.21582 36.6921 5.02064 36.6921 6.01305V8.36984C36.6921 9.31302 36.8517 10.2312 37.1568 11.0946C36.3439 10.757 35.4643 10.5796 34.5576 10.5796C32.7485 10.5796 31.0478 11.2842 29.7686 12.5632C27.9012 14.4305 27.3563 17.1255 28.1298 19.4776C26.7967 19.7056 25.5186 20.3313 24.4915 21.3582C23.2125 22.6374 22.5079 24.3381 22.5079 26.147C22.5079 26.8794 22.6253 27.5935 22.8475 28.2693C21.4783 28.5035 20.2166 29.1511 19.2143 30.1535C17.152 32.2158 16.7004 35.2885 17.8596 37.7931C16.6321 38.0736 15.5048 38.6917 14.5923 39.604C11.9518 42.2445 11.9518 46.5412 14.5923 49.1819L18.1778 52.7672L0.526394 70.4183C-0.175465 71.1201 -0.175465 72.2581 0.526394 72.9601C0.877324 73.3109 1.33732 73.4866 1.79714 73.4866C2.25696 73.4866 2.71696 73.3111 3.06789 72.9601L20.8897 55.1384C21.8986 55.7141 23.0436 56.0221 24.2369 56.0221C26.0458 56.0221 27.7465 55.3175 29.0257 54.0383C30.4154 52.6488 31.0727 50.8003 30.9996 48.9762C31.0907 48.9799 31.1818 48.9826 31.2729 48.9826C33.0069 48.9824 34.7418 48.3223 36.0618 47.0023C37.3408 45.7231 38.0453 44.0224 38.0453 42.2134C38.0453 42.122 38.0423 42.0311 38.0387 41.9401C38.1287 41.9437 38.2187 41.9466 38.3089 41.9466C40.0431 41.9466 41.7776 41.2864 43.0978 39.9663C44.3768 38.6871 45.0813 36.9863 45.0813 35.1774C45.0813 35.086 45.0783 34.995 45.0747 34.9041C45.1647 34.9077 45.2547 34.9106 45.345 34.9106C47.0793 34.9106 48.8136 34.2504 50.1338 32.9302C52.6149 30.4491 52.7642 26.5062 50.583 23.8485L62.5132 11.9183C63.1135 11.3178 63.9113 10.9873 64.7604 10.9873C65.6094 10.9873 66.4074 11.3178 67.0077 11.9183C67.608 12.5186 67.9385 13.3165 67.9385 14.1655C67.9385 15.0143 67.608 15.8125 67.0075 16.4126L65.2486 18.1716L58.8664 24.5538C58.1646 25.2556 58.1646 26.3936 58.8664 27.0956C59.2174 27.4464 59.6774 27.6221 60.1372 27.6221C60.597 27.6221 61.057 27.4465 61.4079 27.0956L67.7901 20.7135C69.029 19.4743 71.0453 19.4742 72.2846 20.7133C73.5237 21.9526 73.5237 23.9687 72.2846 25.208L70.5255 26.9671L65.9025 31.5901C65.2006 32.292 65.2006 33.43 65.9025 34.132C66.2534 34.4827 66.7134 34.6585 67.1732 34.6585C67.633 34.6585 68.093 34.4829 68.444 34.132L73.067 29.509C73.6673 28.9085 74.4653 28.578 75.3141 28.578C76.1632 28.578 76.9611 28.9085 77.5615 29.509C78.1618 30.1093 78.4923 30.9071 78.4923 31.7562C78.4923 32.605 78.1618 33.4032 77.5613 34.0033L75.1468 36.4178L72.9383 38.6263C72.2364 39.3282 72.2364 40.4662 72.9383 41.1682C73.2892 41.5189 73.7492 41.6947 74.2091 41.6947C74.6689 41.6947 75.1289 41.5191 75.4798 41.1682L77.69 38.958C78.9293 37.7209 80.9443 37.7211 82.1829 38.9597C83.4222 40.1988 83.4222 42.2151 82.1829 43.4544L64.7481 60.8889C60.3702 65.267 54.5518 67.8015 48.3646 68.0261C47.9098 68.0426 47.4778 68.2311 47.1566 68.5538L31.0508 84.7192C30.3502 85.4223 30.3522 86.5603 31.0555 87.2609C31.4061 87.6102 31.865 87.7851 32.3239 87.7851C32.7848 87.7851 33.2461 87.6088 33.597 87.2562L45.4432 75.3663C48.4523 77.2967 51.991 78.2145 55.5893 77.9766L64.8608 87.2483C65.2117 87.5991 65.6717 87.7748 66.1316 87.7748C66.5916 87.7748 67.0514 87.5993 67.4023 87.2483C68.1042 86.5465 68.1042 85.4085 67.4023 84.7065L57.5446 74.8477C57.1714 74.4747 56.6529 74.2841 56.1269 74.3272L55.5571 74.3739C52.927 74.5895 50.3273 74.0135 48.0575 72.7414L49.2125 71.5823C56.0435 71.1609 62.439 68.2827 67.2918 63.4297ZM26.4842 51.4968C25.8839 52.0973 25.0857 52.4278 24.2371 52.4278C23.388 52.4278 22.59 52.0973 21.9899 51.4968L17.1337 46.6408C15.8945 45.4016 15.8945 43.3854 17.1337 42.1461C17.734 41.5455 18.5322 41.2151 19.381 41.2151C20.2298 41.2151 21.028 41.5455 21.6282 42.1461L26.4844 47.0021C27.7234 48.2412 27.7234 50.2575 26.4842 51.4968ZM33.5206 44.4604C32.2813 45.6996 30.2647 45.6996 29.0259 44.4604L24.1697 39.6042L21.755 37.1896C20.5159 35.9504 20.5159 33.9342 21.755 32.695C22.3554 32.0945 23.1535 31.7641 24.0022 31.7641C24.8512 31.7641 25.6492 32.0945 26.2494 32.695L33.5201 39.9657C33.5201 39.9657 33.5201 39.9657 33.5203 39.9657C34.1208 40.5662 34.4512 41.3642 34.4512 42.2131C34.4512 43.0619 34.1208 43.8601 33.5206 44.4604ZM40.5566 37.4242C39.3173 38.6632 37.3009 38.6633 36.0619 37.4242L27.0321 28.3944C26.4318 27.7941 26.1013 26.9962 26.1013 26.1472C26.1013 25.2984 26.4318 24.5002 27.0323 23.9C27.6518 23.2805 28.4658 22.9707 29.2794 22.9707C30.0927 22.9707 30.9058 23.2801 31.5252 23.8986L35.6407 28.0142L40.5563 32.9297H40.5565C41.1566 33.53 41.4871 34.3279 41.4871 35.1769C41.4874 36.0259 41.157 36.8241 40.5566 37.4242ZM47.5928 30.388C46.3537 31.6271 44.3374 31.6271 43.0983 30.388L34.0685 21.3582C34.0676 21.3573 34.0665 21.3564 34.0654 21.3553L32.3093 19.5992C31.0702 18.3599 31.0702 16.3438 32.3093 15.1045C32.9289 14.4848 33.7429 14.175 34.5567 14.175C35.3705 14.175 36.1845 14.4848 36.8039 15.1045L47.5925 25.8931C48.193 26.4935 48.5234 27.2915 48.5234 28.1403C48.5236 28.9895 48.1934 29.7879 47.5928 30.388ZM48.0654 21.2829L43.129 16.3465C43.6888 16.466 44.2643 16.5294 44.8501 16.5293C44.8632 16.5293 44.8765 16.5293 44.8898 16.5293L49.8219 16.5061C50.8143 16.5014 51.6153 15.693 51.6106 14.7004C51.606 13.7107 50.8022 12.9116 49.8136 12.9116C49.8107 12.9116 49.8078 12.9116 49.805 12.9116L44.8729 12.9348C44.8654 12.9348 44.8582 12.9348 44.8506 12.9348C43.6354 12.9348 42.4924 12.4631 41.6306 11.6055C40.7635 10.7422 40.286 9.59333 40.286 8.36966V7.81011H52.6014C54.9149 7.81011 57.1457 8.78132 58.722 10.4751L58.7951 10.5536L48.0654 21.2829Z"/>
</mask>
<path d="M67.2918 63.4297L84.7265 45.9951C87.367 43.3545 87.367 39.0578 84.7263 36.4171C83.7952 35.4859 82.658 34.8847 81.4602 34.6103C81.8709 33.7273 82.0883 32.7583 82.0883 31.7554C82.0883 29.9464 81.3838 28.2456 80.1048 26.9666C79.1016 25.9632 77.8386 25.3153 76.4677 25.0819C77.2395 22.7305 76.6939 20.0375 74.8275 18.1713C73.8013 17.1452 72.525 16.5199 71.193 16.2914C71.4162 15.6141 71.5339 14.899 71.5339 14.1651C71.5339 12.356 70.8293 10.6553 69.5503 9.37627C68.2711 8.09725 66.5704 7.39269 64.7614 7.39269C63.6127 7.39269 62.5082 7.67768 61.5269 8.21279L61.3535 8.02645C59.0998 5.60462 55.9099 4.21582 52.602 4.21582H38.4893C37.4969 4.21582 36.6921 5.02064 36.6921 6.01305V8.36984C36.6921 9.31302 36.8517 10.2312 37.1568 11.0946C36.3439 10.757 35.4643 10.5796 34.5576 10.5796C32.7485 10.5796 31.0478 11.2842 29.7686 12.5632C27.9012 14.4305 27.3563 17.1255 28.1298 19.4776C26.7967 19.7056 25.5186 20.3313 24.4915 21.3582C23.2125 22.6374 22.5079 24.3381 22.5079 26.147C22.5079 26.8794 22.6253 27.5935 22.8475 28.2693C21.4783 28.5035 20.2166 29.1511 19.2143 30.1535C17.152 32.2158 16.7004 35.2885 17.8596 37.7931C16.6321 38.0736 15.5048 38.6917 14.5923 39.604C11.9518 42.2445 11.9518 46.5412 14.5923 49.1819L18.1778 52.7672L0.526394 70.4183C-0.175465 71.1201 -0.175465 72.2581 0.526394 72.9601C0.877324 73.3109 1.33732 73.4866 1.79714 73.4866C2.25696 73.4866 2.71696 73.3111 3.06789 72.9601L20.8897 55.1384C21.8986 55.7141 23.0436 56.0221 24.2369 56.0221C26.0458 56.0221 27.7465 55.3175 29.0257 54.0383C30.4154 52.6488 31.0727 50.8003 30.9996 48.9762C31.0907 48.9799 31.1818 48.9826 31.2729 48.9826C33.0069 48.9824 34.7418 48.3223 36.0618 47.0023C37.3408 45.7231 38.0453 44.0224 38.0453 42.2134C38.0453 42.122 38.0423 42.0311 38.0387 41.9401C38.1287 41.9437 38.2187 41.9466 38.3089 41.9466C40.0431 41.9466 41.7776 41.2864 43.0978 39.9663C44.3768 38.6871 45.0813 36.9863 45.0813 35.1774C45.0813 35.086 45.0783 34.995 45.0747 34.9041C45.1647 34.9077 45.2547 34.9106 45.345 34.9106C47.0793 34.9106 48.8136 34.2504 50.1338 32.9302C52.6149 30.4491 52.7642 26.5062 50.583 23.8485L62.5132 11.9183C63.1135 11.3178 63.9113 10.9873 64.7604 10.9873C65.6094 10.9873 66.4074 11.3178 67.0077 11.9183C67.608 12.5186 67.9385 13.3165 67.9385 14.1655C67.9385 15.0143 67.608 15.8125 67.0075 16.4126L65.2486 18.1716L58.8664 24.5538C58.1646 25.2556 58.1646 26.3936 58.8664 27.0956C59.2174 27.4464 59.6774 27.6221 60.1372 27.6221C60.597 27.6221 61.057 27.4465 61.4079 27.0956L67.7901 20.7135C69.029 19.4743 71.0453 19.4742 72.2846 20.7133C73.5237 21.9526 73.5237 23.9687 72.2846 25.208L70.5255 26.9671L65.9025 31.5901C65.2006 32.292 65.2006 33.43 65.9025 34.132C66.2534 34.4827 66.7134 34.6585 67.1732 34.6585C67.633 34.6585 68.093 34.4829 68.444 34.132L73.067 29.509C73.6673 28.9085 74.4653 28.578 75.3141 28.578C76.1632 28.578 76.9611 28.9085 77.5615 29.509C78.1618 30.1093 78.4923 30.9071 78.4923 31.7562C78.4923 32.605 78.1618 33.4032 77.5613 34.0033L75.1468 36.4178L72.9383 38.6263C72.2364 39.3282 72.2364 40.4662 72.9383 41.1682C73.2892 41.5189 73.7492 41.6947 74.2091 41.6947C74.6689 41.6947 75.1289 41.5191 75.4798 41.1682L77.69 38.958C78.9293 37.7209 80.9443 37.7211 82.1829 38.9597C83.4222 40.1988 83.4222 42.2151 82.1829 43.4544L64.7481 60.8889C60.3702 65.267 54.5518 67.8015 48.3646 68.0261C47.9098 68.0426 47.4778 68.2311 47.1566 68.5538L31.0508 84.7192C30.3502 85.4223 30.3522 86.5603 31.0555 87.2609C31.4061 87.6102 31.865 87.7851 32.3239 87.7851C32.7848 87.7851 33.2461 87.6088 33.597 87.2562L45.4432 75.3663C48.4523 77.2967 51.991 78.2145 55.5893 77.9766L64.8608 87.2483C65.2117 87.5991 65.6717 87.7748 66.1316 87.7748C66.5916 87.7748 67.0514 87.5993 67.4023 87.2483C68.1042 86.5465 68.1042 85.4085 67.4023 84.7065L57.5446 74.8477C57.1714 74.4747 56.6529 74.2841 56.1269 74.3272L55.5571 74.3739C52.927 74.5895 50.3273 74.0135 48.0575 72.7414L49.2125 71.5823C56.0435 71.1609 62.439 68.2827 67.2918 63.4297ZM26.4842 51.4968C25.8839 52.0973 25.0857 52.4278 24.2371 52.4278C23.388 52.4278 22.59 52.0973 21.9899 51.4968L17.1337 46.6408C15.8945 45.4016 15.8945 43.3854 17.1337 42.1461C17.734 41.5455 18.5322 41.2151 19.381 41.2151C20.2298 41.2151 21.028 41.5455 21.6282 42.1461L26.4844 47.0021C27.7234 48.2412 27.7234 50.2575 26.4842 51.4968ZM33.5206 44.4604C32.2813 45.6996 30.2647 45.6996 29.0259 44.4604L24.1697 39.6042L21.755 37.1896C20.5159 35.9504 20.5159 33.9342 21.755 32.695C22.3554 32.0945 23.1535 31.7641 24.0022 31.7641C24.8512 31.7641 25.6492 32.0945 26.2494 32.695L33.5201 39.9657C33.5201 39.9657 33.5201 39.9657 33.5203 39.9657C34.1208 40.5662 34.4512 41.3642 34.4512 42.2131C34.4512 43.0619 34.1208 43.8601 33.5206 44.4604ZM40.5566 37.4242C39.3173 38.6632 37.3009 38.6633 36.0619 37.4242L27.0321 28.3944C26.4318 27.7941 26.1013 26.9962 26.1013 26.1472C26.1013 25.2984 26.4318 24.5002 27.0323 23.9C27.6518 23.2805 28.4658 22.9707 29.2794 22.9707C30.0927 22.9707 30.9058 23.2801 31.5252 23.8986L35.6407 28.0142L40.5563 32.9297H40.5565C41.1566 33.53 41.4871 34.3279 41.4871 35.1769C41.4874 36.0259 41.157 36.8241 40.5566 37.4242ZM47.5928 30.388C46.3537 31.6271 44.3374 31.6271 43.0983 30.388L34.0685 21.3582C34.0676 21.3573 34.0665 21.3564 34.0654 21.3553L32.3093 19.5992C31.0702 18.3599 31.0702 16.3438 32.3093 15.1045C32.9289 14.4848 33.7429 14.175 34.5567 14.175C35.3705 14.175 36.1845 14.4848 36.8039 15.1045L47.5925 25.8931C48.193 26.4935 48.5234 27.2915 48.5234 28.1403C48.5236 28.9895 48.1934 29.7879 47.5928 30.388ZM48.0654 21.2829L43.129 16.3465C43.6888 16.466 44.2643 16.5294 44.8501 16.5293C44.8632 16.5293 44.8765 16.5293 44.8898 16.5293L49.8219 16.5061C50.8143 16.5014 51.6153 15.693 51.6106 14.7004C51.606 13.7107 50.8022 12.9116 49.8136 12.9116C49.8107 12.9116 49.8078 12.9116 49.805 12.9116L44.8729 12.9348C44.8654 12.9348 44.8582 12.9348 44.8506 12.9348C43.6354 12.9348 42.4924 12.4631 41.6306 11.6055C40.7635 10.7422 40.286 9.59333 40.286 8.36966V7.81011H52.6014C54.9149 7.81011 57.1457 8.78132 58.722 10.4751L58.7951 10.5536L48.0654 21.2829Z" fill="#0F172A" stroke="white" stroke-width="0.71875" mask="url(#path-3-inside-1_43_3426)"/>
</g>
<defs>
<clipPath id="clip0_43_3426">
<rect width="92" height="92" fill="white"/>
</clipPath>
</defs>
</svg>
