<svg width="92" height="92" viewBox="0 0 92 92" fill="none" xmlns="http://www.w3.org/2000/svg">
<g clip-path="url(#clip0_43_3440)">
<path d="M45.9991 0C25.896 0 9.54102 16.355 9.54102 36.4581C9.54102 47.8634 14.8068 58.0606 23.0332 64.7509L21.0976 68.308C20.7426 68.9603 20.9837 69.777 21.636 70.1319C22.2884 70.4867 23.1047 70.2456 23.4598 69.5935L25.2047 66.3868C29.3667 69.2873 34.1582 71.3429 39.3305 72.3028L30.1806 89.1361L26.0762 83.1267C25.6238 82.4645 24.875 82.0575 24.0736 82.0383L16.7986 81.8622L20.4755 75.0977C20.8302 74.4453 20.5887 73.6288 19.9363 73.274C19.2835 72.9195 18.4674 73.161 18.1128 73.8133L14.2867 80.8524C13.8677 81.6234 13.8797 82.5369 14.3191 83.2965C14.7582 84.056 15.5442 84.5219 16.4211 84.5432L23.9106 84.7243L28.136 90.9109C28.6062 91.5993 29.3688 92.0002 30.1954 92.0002C30.2385 92.0002 30.282 91.9989 30.3255 91.9968C31.2016 91.9524 31.9748 91.4656 32.3939 90.6949L42.1669 72.7152C43.4265 72.8475 44.7046 72.9163 45.9987 72.9163C47.2865 72.9163 48.5652 72.8482 49.8311 72.7163L59.6034 90.6949C60.0224 91.4656 60.7956 91.9524 61.6719 91.9968C61.7154 91.9989 61.7587 92.0002 61.802 92.0002C62.6286 92.0002 63.3912 91.5993 63.8614 90.9109L68.087 84.7243L75.5763 84.5432C76.4534 84.5219 77.2392 84.0558 77.6785 83.2967C78.1179 82.5371 78.1301 81.6234 77.711 80.8524L68.9698 64.7709C74.0247 60.6729 77.8692 55.345 80.1564 49.231C80.4166 48.5354 80.0639 47.7608 79.3683 47.5006C78.6727 47.2406 77.8981 47.5931 77.6379 48.2887C75.2525 54.6652 71.0389 60.1202 65.4524 64.0643C59.7419 68.0962 53.015 70.2273 45.9989 70.2273C27.3786 70.2273 12.23 55.0785 12.23 36.4582C12.23 17.8379 27.3788 2.6892 45.9991 2.6892C64.6194 2.6892 79.7679 17.8378 79.7679 36.4581C79.7679 38.4716 79.5895 40.4881 79.2378 42.4515C79.1068 43.1825 79.5934 43.8811 80.3244 44.0121C81.0545 44.1431 81.7542 43.6565 81.885 42.9255C82.2645 40.8063 82.4571 38.6301 82.4571 36.4581C82.4571 16.355 66.1021 0 45.9991 0V0ZM66.7972 66.4039L75.1995 81.8619L67.9247 82.0379C67.1229 82.0572 66.3744 82.4642 65.9219 83.1263L61.8173 89.1356L52.67 72.3072C57.7257 71.3747 62.5208 69.3797 66.7972 66.4039Z" fill="#0F172A"/>
<path d="M46.0009 7.48071C30.0227 7.48071 17.0234 20.4798 17.0234 36.458C17.0234 52.4364 30.0227 65.4355 46.0009 65.4355C61.9791 65.4355 74.9782 52.4364 74.9782 36.458C74.9782 20.4798 61.9791 7.48071 46.0009 7.48071ZM46.0009 62.7463C31.5055 62.7463 19.7126 50.9534 19.7126 36.458C19.7126 21.9626 31.5055 10.1699 46.0009 10.1699C60.4961 10.1699 72.289 21.9626 72.289 36.458C72.289 50.9534 60.4961 62.7463 46.0009 62.7463Z" fill="#0F172A"/>
<path d="M42.9065 31.8027C43.6492 31.8027 44.2511 31.2008 44.2511 30.4581C44.2511 29.7155 43.6492 29.1135 42.9065 29.1135H37.8505C37.1078 29.1135 36.5059 29.7155 36.5059 30.4581V42.4577C36.5059 43.2003 37.1078 43.8023 37.8505 43.8023H42.9065C43.6492 43.8023 44.2511 43.2003 44.2511 42.4577C44.2511 41.715 43.6492 41.1131 42.9065 41.1131H39.1951V37.8025H42.5337C43.2763 37.8025 43.8783 37.2005 43.8783 36.4579C43.8783 35.7152 43.2763 35.1133 42.5337 35.1133H39.1951V31.8027H42.9065Z" fill="#0F172A"/>
<path d="M31.9552 35.5603C32.4277 34.8887 32.7064 34.0713 32.7064 33.1895C32.7064 30.9116 30.8533 29.0583 28.5752 29.0583H25.0575C24.3148 29.0583 23.7129 29.6603 23.7129 30.403V42.5128C23.7129 42.8706 23.8554 43.2132 24.1087 43.4657C24.3608 43.7165 24.7019 43.8574 25.0573 43.8574H25.0632C25.0632 43.8574 28.2978 43.843 29.1892 43.843C31.728 43.843 33.7935 41.7777 33.7935 39.2389C33.7939 37.7373 33.071 36.4013 31.9552 35.5603ZM26.4023 31.7476H28.5754C29.3705 31.7476 30.0174 32.3944 30.0174 33.1895C30.0174 33.9847 29.3705 34.6314 28.5754 34.6314C28.3163 34.6314 26.4023 34.6348 26.4023 34.6348V31.7476ZM29.1896 41.154C28.6793 41.154 27.4035 41.1587 26.4021 41.1628V37.3274C26.6934 37.3263 29.1896 37.324 29.1896 37.324C30.2456 37.324 31.1047 38.1831 31.1047 39.2391C31.1047 40.2947 30.2456 41.154 29.1896 41.154Z" fill="#0F172A"/>
<path d="M53.6729 35.2916C52.3639 34.809 51.1542 34.2976 50.5494 34.0354C50.3634 33.9549 50.2206 33.8487 50.1365 33.7289C49.9502 33.4631 49.9077 33.1054 50.0233 32.772C50.1683 32.3534 50.5338 32.0367 51.0525 31.8806C52.8498 31.3394 54.4964 32.6462 54.5412 32.6822C55.1093 33.1546 55.9533 33.0797 56.4295 32.5131C56.9073 31.9446 56.834 31.0964 56.2655 30.6187C56.1539 30.5252 53.4988 28.3357 50.277 29.3057C48.9294 29.7118 47.9109 30.6544 47.4823 31.8923C47.0852 33.0387 47.2543 34.3024 47.935 35.2731C48.3048 35.8001 48.8393 36.2254 49.481 36.5034C50.1112 36.7764 51.3729 37.3099 52.7427 37.815C53.3135 38.0256 54.6217 38.6261 54.4386 39.6523C54.3056 40.3976 53.4156 41.1686 52.1565 41.1686C50.9059 41.1686 49.7007 40.6626 48.9328 39.8152C48.4339 39.2649 47.5837 39.2235 47.0335 39.7218C46.4833 40.2204 46.4414 41.0707 46.94 41.6211C48.2092 43.0218 50.1593 43.8579 52.1565 43.8579C54.6265 43.8579 56.6996 42.2879 57.0859 40.125C57.375 38.5033 56.6306 36.3825 53.6729 35.2916Z" fill="#0F172A"/>
<path d="M58.9102 30.403C58.9102 31.1456 59.5121 31.7476 60.2548 31.7476H62.2407V42.5128C62.2407 43.2555 62.8426 43.8574 63.5853 43.8574C64.3279 43.8574 64.9299 43.2555 64.9299 42.5128V31.7476H66.9425C67.6852 31.7476 68.2871 31.1456 68.2871 30.403C68.2871 29.6603 67.6852 29.0583 66.9425 29.0583H60.2548C59.5119 29.0583 58.9102 29.6603 58.9102 30.403Z" fill="#0F172A"/>
</g>
<defs>
<clipPath id="clip0_43_3440">
<rect width="92" height="92" fill="white"/>
</clipPath>
</defs>
</svg>
