<svg width="92" height="92" viewBox="0 0 92 92" fill="none" xmlns="http://www.w3.org/2000/svg">
<g clip-path="url(#clip0_43_3453)">
<path d="M91.5366 35.3906L74.5426 20.6494C74.145 20.3046 73.5829 20.2237 73.1041 20.4419C72.6252 20.6606 72.3181 21.1382 72.3181 21.6645V29.3398L65.5213 29.342L65.4905 29.3413C60.8794 29.2392 56.438 30.3398 52.5264 32.4994V19.597H60.939C61.4686 19.597 61.9485 19.2861 62.1652 18.8029C62.3819 18.3198 62.2948 17.7545 61.9424 17.3592L47.0046 0.589277C46.7497 0.302856 46.3845 0.13916 46.0009 0.13916C45.6173 0.13916 45.2525 0.302856 44.9972 0.589277L30.0594 17.3595C29.7072 17.7548 29.62 18.3201 29.8366 18.8033C30.0533 19.2865 30.5334 19.5973 31.0628 19.5973H39.4754V25.5145C39.4754 26.2567 40.0771 26.8583 40.8192 26.8583C41.5614 26.8583 42.1631 26.2566 42.1631 25.5145V18.2535C42.1631 17.5112 41.5614 16.9096 40.8192 16.9096H34.0594L46.0004 3.50381L57.9413 16.9096H51.1818C50.4395 16.9096 49.8379 17.5113 49.8379 18.2535V34.2133C48.8946 34.9015 47.9913 35.6573 47.1371 36.4811C45.0795 38.4653 43.412 40.7104 42.1637 43.1537V30.8902C42.1637 30.1479 41.5619 29.5463 40.8198 29.5463C40.0775 29.5463 39.4759 30.1481 39.4759 30.8902V49.757C35.5657 47.5963 31.1267 46.4949 26.5136 46.5986L26.4811 46.5993L19.6815 46.5972V38.9218C19.6815 38.3955 19.3744 37.9176 18.8956 37.6992C18.4165 37.4807 17.8545 37.5618 17.457 37.9068L0.463414 52.6478C0.168906 52.903 0 53.2733 0 53.6629C0 54.0524 0.168906 54.4228 0.463414 54.6779L5.69753 59.2181C6.25834 59.7047 7.107 59.6441 7.59341 59.0835C8.07965 58.5229 8.01945 57.674 7.45883 57.1876L3.39502 53.6625L16.9941 41.8662V47.9402C16.9941 48.6823 17.5955 49.2839 18.3376 49.2841L26.4967 49.2868C26.5053 49.2868 26.5138 49.2867 26.5224 49.2866L26.5686 49.2855C32.7497 49.1507 38.5847 51.4178 42.9969 55.6728C47.3613 59.8815 49.7844 65.4992 49.8361 71.5103V74.6958C49.8361 75.4381 50.4379 76.0397 51.18 76.0397C51.1804 76.0397 51.1807 76.0397 51.1813 76.0397C51.1816 76.0397 51.1822 76.0397 51.1825 76.0397C51.9248 76.0397 52.5264 75.4379 52.5264 74.6958V71.7065C52.5264 71.641 52.5245 71.5757 52.5239 71.5101V54.4495C52.5239 51.1406 53.8457 48.0439 56.2456 45.7293C58.6446 43.4158 61.8132 42.1781 65.1757 42.2514C65.1852 42.2516 65.1948 42.2531 65.2045 42.2516L72.3181 42.2489V51.1467C72.3181 51.673 72.6252 52.1508 73.1041 52.3693C73.5829 52.5878 74.145 52.5066 74.5426 52.1618L91.5366 37.4205C91.8309 37.1654 92 36.7949 92 36.4055C92 36.0161 91.8311 35.6458 91.5366 35.3906ZM75.0061 48.2022V40.9049C75.0061 40.5484 74.8643 40.2066 74.6122 39.9545C74.3603 39.7026 74.0183 39.561 73.6622 39.561C73.662 39.561 73.6618 39.561 73.6616 39.561L65.2178 39.5642C61.1473 39.4859 57.2944 40.9845 54.3797 43.795C51.4496 46.6205 49.836 50.4044 49.836 54.4499V60.4331C48.585 57.979 46.9162 55.7188 44.8626 53.7383C44.0624 52.9667 43.2201 52.2546 42.3417 51.6017C42.9802 46.5598 45.2751 42.011 49.0033 38.4158C53.4155 34.1608 59.2484 31.8885 65.446 32.029C65.4483 32.029 65.4673 32.0296 65.4695 32.0296C65.4808 32.0299 65.4932 32.031 65.5036 32.0301L73.6627 32.0274C74.4048 32.0272 75.0062 31.4255 75.0062 30.6835V24.6095L88.6052 36.4058L75.0061 48.2022Z" fill="#0F172A"/>
<path d="M51.1833 78.7274C50.441 78.7274 49.8394 79.3292 49.8394 80.0713V89.1728H42.1648V71.7063C42.1648 67.6608 40.5512 63.8769 37.621 61.0514C34.7067 58.2411 30.8538 56.738 26.7832 56.8206L18.3391 56.8174C18.339 56.8174 18.3388 56.8174 18.3386 56.8174C17.9825 56.8174 17.6405 56.959 17.3886 57.2109C17.1365 57.463 16.9947 57.8048 16.9947 58.1613V65.4587L11.5214 60.711C10.9608 60.2248 10.1118 60.2852 9.62555 60.8456C9.13931 61.4062 9.19951 62.2551 9.76013 62.7415L17.4578 69.4189C17.8552 69.7637 18.4175 69.8447 18.8963 69.6264C19.3752 69.4077 19.6823 68.9301 19.6823 68.4038V59.5061L26.7958 59.5087C26.8065 59.51 26.815 59.5087 26.8245 59.5086C30.1849 59.4385 33.3558 60.6731 35.7548 62.9866C38.1547 65.3006 39.4765 68.3977 39.4765 71.7066V90.5171C39.4765 91.2593 40.0783 91.8609 40.8204 91.8609H51.1828C51.9251 91.8609 52.5267 91.2592 52.5267 90.5171V80.0713C52.5272 79.329 51.9256 78.7274 51.1833 78.7274Z" fill="#0F172A"/>
</g>
<defs>
<clipPath id="clip0_43_3453">
<rect width="92" height="92" fill="white"/>
</clipPath>
</defs>
</svg>
