<svg width="92" height="92" viewBox="0 0 92 92" fill="none" xmlns="http://www.w3.org/2000/svg">
<g clip-path="url(#clip0_43_3406)">
<path d="M53.8093 25.3309C52.6092 24.9685 51.0923 25.4612 48.739 26.9774C46.8355 28.2042 44.8667 29.7547 44.6971 31.9538C44.4676 34.9292 47.7055 37.8325 50.5518 37.8301C53.6095 37.8276 55.1206 34.966 55.4733 32.3081C55.8228 29.6807 56.3011 26.082 53.8093 25.3309ZM52.8081 31.9544C52.5743 34.2789 51.1741 36.2608 48.8339 34.4609C48.1367 33.8414 47.3181 32.9395 47.3781 32.1608C47.1661 30.9149 52.0254 27.8664 52.9454 27.9077C53.0736 28.2333 53.1759 29.1871 52.8081 31.9544Z" fill="#0F172A"/>
<path d="M87.9342 26.7629C87.708 25.5242 86.9071 23.8307 84.3747 22.7973C83.686 22.5163 82.9022 22.8467 82.6219 23.5342C82.3414 24.2218 82.6713 25.0065 83.3588 25.287C88.0553 27.1194 83.2458 32.933 80.6695 35.655C80.3301 15.9389 64.1889 0.00382767 44.3934 0.00382767C14.1708 -0.4319 -3.05797 36.4339 16.3236 59.2497C12.9659 59.4175 7.18891 58.7716 6.76648 57.5919C6.65328 57.3634 6.81751 56.7597 7.65285 55.8113C8.14374 55.2541 8.08983 54.4046 7.53264 53.9139C6.97563 53.4228 6.12609 53.4771 5.6352 54.0341C4.09354 55.7843 3.6632 57.3824 4.35605 58.784C5.49882 62.0268 14.7379 62.1467 18.6826 61.8612C24.9632 68.1741 33.5446 72.1963 43.049 72.5445V79.491H35.5193C34.7767 79.491 34.1749 80.0929 34.1749 80.8354C34.1749 81.5778 34.7767 82.1797 35.5193 82.1797H68.4946V84.4011H20.3484V82.1797H29.2651C31.0292 82.1508 31.0346 79.521 29.2651 79.4908H19.004C18.2614 79.4908 17.6597 80.0927 17.6597 80.8352V84.401C10.3723 84.4786 11.6026 83.3204 11.5077 90.6557C11.5077 91.3983 12.1095 92.0001 12.8521 92.0001H75.9915C76.7341 92.0001 77.3359 91.3981 77.3359 90.6557C77.2033 83.4149 78.5877 84.4547 71.1836 84.401V80.8352C71.1836 80.0926 70.5818 79.4908 69.8392 79.4908H45.738V72.5443C64.0721 71.8728 78.9751 57.5346 80.5392 39.4382C82.2882 37.7123 88.4544 32.7891 87.9342 26.7629ZM74.6469 87.0899V89.3111H14.1963V87.0899H74.6469ZM10.7984 36.2878C10.7984 30.504 12.2676 25.057 14.8525 20.3001C18.895 24.4881 24.5873 27.018 29.799 29.2702C31.2932 29.9204 33.5933 30.508 34.6194 31.8635C35.4214 32.9227 34.4854 33.5062 33.5248 33.5601C31.5893 33.6688 29.6967 33.3281 27.8823 32.6737C26.8644 32.3068 25.7107 31.891 24.42 32.0678C23.3355 32.2191 22.296 32.9387 21.772 33.9013C20.9534 35.322 21.7203 36.8102 22.8009 37.8054C21.1482 39.2364 20.7612 41.6535 21.8445 43.8276C23.576 47.2818 27.7651 49.2709 31.0973 50.826C34.6809 52.4105 35.7288 53.0956 38.1628 56.196C31.7785 57.7096 25.7382 58.6643 19.8895 59.0898C14.18 52.9251 10.7984 44.7169 10.7984 36.2878ZM33.4763 68.0476C29.4243 66.6524 25.656 64.3988 22.4361 61.5721C28.2154 61.0204 34.1852 59.9716 40.4821 58.398C41.6745 59.201 42.1542 59.3695 44.0387 59.5514C44.1219 59.7835 44.0978 60.085 43.8854 60.3172C43.8477 60.3402 43.6862 60.3759 43.5794 60.3996C42.4095 60.5885 41.4409 61.486 40.6289 62.146C38.228 63.9649 35.5604 65.6925 33.4763 68.0476ZM75.1207 49.7587C68.4961 64.4229 51.6874 72.5626 36.39 68.8971C38.831 66.7489 41.9841 64.4563 43.8129 63.1234C44.1474 62.9423 44.5907 62.9429 44.9483 62.7867C47.128 61.8626 47.4198 58.3148 45.3905 57.0842C54.7111 54.3286 65.5856 50.734 77.5125 41.912C77.0564 44.5952 76.2677 47.22 75.1207 49.7587ZM77.9333 38.1324C64.3938 48.8362 53.0188 52.112 41.1408 55.455C39.4432 53.7782 38.1653 51.5564 36.0068 50.3003C32.0054 47.9208 26.8488 46.7165 24.2481 42.6225C23.0582 39.9526 25.3252 40.0322 25.5815 37.9865C25.6638 36.5608 24.7043 36.0152 24.1021 35.2581C24.6268 34.2554 25.9649 34.868 26.9702 35.2031C29.1196 35.9788 31.383 36.3733 33.6765 36.2447C37.1149 36.2654 38.7579 33.0514 36.7638 30.241C35.8964 29.0943 34.6746 28.4848 33.3929 27.9112C27.4144 25.2306 20.7709 22.8334 16.29 17.9028C24.5603 4.44017 44.1819 -1.52203 58.7234 5.9989C57.407 6.54801 56.0204 6.90719 54.6196 7.04878C52.9867 7.21373 51.3593 7.16054 49.7788 7.68018C44.8207 9.34511 44.7556 15.0241 49.6568 16.8271C50.7207 17.167 52.9502 17.9777 53.2544 16.1718C53.3816 14.4254 51.6083 14.7269 50.5734 14.2993C49.618 13.9532 48.6612 13.1267 48.6815 12.2191C49.1578 9.62434 52.8442 9.9386 54.8904 9.72388C57.2326 9.48706 59.5404 8.74713 61.622 7.57327C67.807 11.3311 72.7624 17.0159 75.5367 23.7615C73.8838 25.6302 71.1845 25.7118 69.9308 28.4079C68.7978 30.6695 69.5776 33.4224 69.2399 35.681C68.9133 37.3569 68.4096 38.3985 67.6539 38.9599C67.1427 39.3395 65.9527 39.5548 65.616 38.826C65.1687 37.8453 66.1625 36.2363 66.3365 35.266C66.5419 34.114 66.3929 33.037 66.2488 31.9954C66.0007 30.1993 66.3503 28.4081 66.3627 26.6035C66.3931 22.1668 63.3002 17.9829 58.483 15.9445C56.8491 15.2881 55.8145 17.6987 57.4351 18.4208C61.9016 20.3476 64.2957 24.0975 63.5435 28.2469C63.3924 29.5986 63.3996 31.0217 63.5852 32.3638C63.7629 33.6481 63.755 34.7589 63.3505 35.9951C62.982 37.1219 62.5235 38.5243 63.1694 39.9415C64.2259 42.2592 67.3713 42.5224 69.2579 41.1177C70.9994 39.8243 71.5879 37.689 71.8793 36.194C72.2983 34.0445 71.3406 31.6538 72.3481 29.5852C73.1124 28.0564 75.166 27.6656 76.5318 26.525C77.6846 30.1896 78.1548 34.2474 77.9333 38.1324Z" fill="#0F172A"/>
</g>
<defs>
<clipPath id="clip0_43_3406">
<rect width="92" height="92" fill="white"/>
</clipPath>
</defs>
</svg>
